<?xml version="1.0" encoding="UTF-8" standalone="no"?>
<svg width="228px" height="168px" viewBox="0 0 228 168" version="1.1" xmlns="http://www.w3.org/2000/svg" xmlns:xlink="http://www.w3.org/1999/xlink">
    <!-- Generator: Sketch 42 (36781) - http://www.bohemiancoding.com/sketch -->
    <title>ParkdLogo</title>
    <desc>Created with Sketch.</desc>
    <defs></defs>
    <g id="Page-1" stroke="none" stroke-width="1" fill="none" fill-rule="evenodd">
        <g id="Artboard" transform="translate(-253.000000, -266.000000)" fill-rule="nonzero" fill="#3194FE">
            <g id="ParkdLogo" transform="translate(253.000000, 266.000000)">
                <g id="Page-1">
                    <g id="Logo">
                        <path d="M0.112244898,42.2726027 L18.1836735,42.2726027 C21.4693878,42.2726027 24.2857143,42.7410959 26.8673469,43.6780822 C29.4489796,44.6150685 31.5612245,46.0205479 33.6734694,48.3630137 C35.7857143,50.4712329 37.1938776,53.0479452 37.8979592,56.0931507 C38.6020408,59.1383562 39.0714286,62.8863014 39.0714286,68.039726 C39.0714286,71.7876712 38.8367347,74.8328767 38.3673469,77.409589 C37.8979592,79.9863014 36.9591837,82.5630137 35.5510204,84.6712329 C33.9081633,87.4821918 31.7959184,89.590411 28.9795918,90.9958904 C26.1632653,92.6356164 22.6428571,93.3383562 18.1836735,93.3383562 L12.0816327,93.3383562 L12.0816327,125.89863 L0.112244898,125.89863 L0.112244898,42.2726027 Z M12.0816327,81.860274 L17.9489796,81.860274 C20.2959184,81.860274 22.1734694,81.3917808 23.5816327,80.6890411 C24.9897959,79.9863014 25.9285714,79.0493151 26.6326531,77.8780822 C27.3367347,76.7068493 27.5714286,75.3013699 27.8061224,73.4273973 C28.0408163,71.7876712 28.0408163,69.6794521 28.0408163,67.5712329 C28.0408163,65.6972603 28.0408163,63.8232877 27.8061224,61.9493151 C27.5714286,60.0753425 27.3367347,58.669863 26.6326531,57.2643836 C25.9285714,55.8589041 25.2244898,54.9219178 23.8163265,54.2191781 C22.4081633,53.5164384 20.7653061,53.0479452 18.4183673,53.0479452 L12.0816327,53.0479452 L12.0816327,81.860274 Z M61.1326531,66.1657534 L60.8979592,66.1657534 L55.0306122,96.3835616 L67,96.3835616 L61.1326531,66.1657534 Z M55.9693878,42.2726027 L66.0612245,42.2726027 L84.8367347,125.664384 L72.8673469,125.664384 L69.3469388,107.627397 L52.9183673,107.627397 L49.3979592,125.664384 L37.4285714,125.664384 L55.9693878,42.2726027 Z M101.734694,79.5178082 L108.540816,79.5178082 C110.653061,79.5178082 112.295918,79.2835616 113.704082,78.5808219 C114.877551,77.8780822 115.816327,77.1753425 116.520408,76.0041096 C117.22449,74.8328767 117.693878,73.6616438 117.928571,72.0219178 C118.163265,70.3821918 118.397959,68.5082192 118.397959,66.4 C118.397959,64.2917808 118.163265,62.4178082 117.928571,60.7780822 C117.693878,59.1383562 117.22449,57.7328767 116.520408,56.5616438 C115.816327,55.390411 114.642857,54.6876712 113.469388,53.9849315 C112.295918,53.2821918 110.418367,53.0479452 108.071429,53.0479452 L101.734694,53.0479452 L101.734694,79.5178082 L101.734694,79.5178082 Z M89.7653061,42.2726027 L109.010204,42.2726027 C123.091837,42.2726027 130.132653,50.4712329 130.132653,66.8684932 C130.132653,71.7876712 129.428571,75.769863 127.785714,79.2835616 C126.142857,82.7972603 123.561224,85.6082192 119.806122,87.7164384 L132.714286,125.89863 L120.040816,125.89863 L108.77551,90.2931507 L101.5,90.2931507 L101.5,125.89863 L89.5306122,125.89863 L89.5306122,42.2726027 L89.7653061,42.2726027 Z M138.816327,42.2726027 L150.785714,42.2726027 L150.785714,80.4547945 L151.020408,80.4547945 L168.622449,42.2726027 L180.591837,42.2726027 L164.163265,75.769863 L183.642857,125.89863 L170.969388,125.89863 L157.357143,88.8876712 L150.785714,101.068493 L150.785714,126.132877 L138.816327,126.132877 L138.816327,42.2726027 Z M188.102041,42.2726027 L205.938776,42.2726027 C212.744898,42.2726027 217.908163,44.1465753 221.663265,47.8945205 C225.418367,51.6424658 227.061224,57.030137 227.061224,63.8232877 L227.061224,102.942466 C227.061224,110.672603 225.183673,116.528767 221.428571,120.276712 C217.673469,124.024658 212.27551,125.89863 205,125.89863 L188.102041,125.89863 L188.102041,42.2726027 Z M200.071429,114.420548 L205.704082,114.420548 C208.989796,114.420548 211.571429,113.483562 212.979592,111.843836 C214.387755,110.20411 215.091837,107.627397 215.091837,103.879452 L215.091837,63.8232877 C215.091837,60.5438356 214.387755,57.9671233 212.979592,56.0931507 C211.571429,54.2191781 209.22449,53.2821918 205.704082,53.2821918 L200.071429,53.2821918 L200.071429,114.420548 Z" id="PARKD"></path>
                        <polygon id="Bar" points="0 0 227 1.60091419e-14 227 12 0 12"></polygon>
                        <polygon id="Bar_1_" points="0 156 227 156 227 168 0 168"></polygon>
                    </g>
                </g>
            </g>
        </g>
    </g>
</svg>