<svg width="145" height="47" viewBox="0 0 145 47" fill="none" xmlns="http://www.w3.org/2000/svg"><title>Logo POM</title>
<path d="M67.1062 35.9494C57.195 35.9494 49.1306 27.885 49.1306 17.9738C49.1306 8.06261 57.195 0 67.1062 0C77.0174 0 85.0818 8.06445 85.0818 17.9756C85.0818 27.8868 77.0174 35.9513 67.1062 35.9513V35.9494ZM67.1062 14.3798C65.1232 14.3798 63.5103 15.9927 63.5103 17.9756C63.5103 19.9586 65.1232 21.5715 67.1062 21.5715C69.0892 21.5715 70.702 19.9586 70.702 17.9756C70.702 15.9927 69.0892 14.3798 67.1062 14.3798Z" fill="#15151c"/>
<path d="M127.024 0C122.981 0 119.245 1.34223 116.239 3.60323C113.232 1.34223 109.496 0 105.453 0C95.5417 0 87.4773 8.06445 87.4773 17.9756V28.7614C87.4773 32.7328 90.6957 35.9513 94.6672 35.9513C98.6386 35.9513 101.857 32.7328 101.857 28.7614V17.9756C101.857 15.9927 103.47 14.3798 105.453 14.3798C107.436 14.3798 109.049 15.9927 109.049 17.9756V28.7614C109.049 32.7328 112.267 35.9513 116.239 35.9513C120.21 35.9513 123.429 32.7328 123.429 28.7614V17.9756C123.429 15.9927 125.041 14.3798 127.024 14.3798C129.007 14.3798 130.62 15.9927 130.62 17.9756V28.7614C130.62 32.7328 133.839 35.9513 137.81 35.9513C141.782 35.9513 145 32.7328 145 28.7614V17.9756C145 8.06445 136.936 0 127.024 0Z" fill="#15151c"/>
<path d="M28.7595 0C22.8843 0 17.6589 2.83361 14.3761 7.20645C14.3761 7.20093 14.3761 7.19541 14.3761 7.18988C14.3779 3.22026 11.1595 0 7.18804 0C3.21658 0 0 3.22026 0 7.18988C0 10.5261 2.27204 13.3284 5.35237 14.1404L5.35973 14.1423C5.36525 14.1423 5.37262 14.1459 5.3763 14.1459C5.39287 14.1496 5.40944 14.1533 5.42601 14.1588C6.22325 14.3706 10.7821 16 10.7821 21.1149C10.7821 21.1719 10.7821 21.2253 10.7821 21.2806V39.5434C10.7821 43.5149 14.0005 46.7333 17.9719 46.7333C21.9434 46.7333 25.1618 43.5149 25.1618 39.5434V35.5867C26.3236 35.8242 27.5259 35.9476 28.7577 35.9476C38.6689 35.9476 46.7333 27.8831 46.7333 17.9719C46.7333 8.06077 38.6707 0 28.7595 0ZM28.7595 21.5696C26.7766 21.5696 25.1637 19.9568 25.1637 17.9738C25.1637 15.9908 26.7766 14.3779 28.7595 14.3779C30.7425 14.3779 32.3554 15.9908 32.3554 17.9738C32.3554 19.9568 30.7425 21.5696 28.7595 21.5696Z" fill="#15151c"/>
</svg>